<svg width="31" height="30" viewBox="0 0 31 30" fill="none" xmlns="http://www.w3.org/2000/svg">
<path d="M29.0877 28.9017C29.8659 29.6492 31.0669 28.4955 30.2888 27.7642L23.9453 21.6542C26.1705 19.289 27.4005 16.2134 27.3962 13.0255C27.3962 5.89171 21.3572 0.0904541 13.9312 0.0904541C6.50523 0.0904541 0.466309 5.89171 0.466309 13.0255C0.466309 20.1592 6.50523 25.9605 13.9312 25.9605C17.2806 25.9605 20.3761 24.7742 22.7443 22.808L29.0877 28.9017ZM2.15619 13.0255C2.15619 6.78546 7.45082 1.71545 13.9295 1.71545C20.4252 1.71545 25.7029 6.78546 25.7029 13.0255C25.7029 19.2655 20.4252 24.3355 13.9295 24.3355C7.45082 24.3355 2.15619 19.2655 2.15619 13.0255Z" fill="black"/>
</svg>
