<svg width="20" height="20" viewBox="0 0 20 20" fill="none" xmlns="http://www.w3.org/2000/svg">
<path d="M10.8688 10.3924C10.8688 9.5126 10.5193 8.66878 9.89718 8.04663C9.27503 7.42449 8.43122 7.07497 7.55137 7.07497C6.67152 7.07497 5.82771 7.42449 5.20556 8.04663C4.58341 8.66878 4.23389 9.5126 4.23389 10.3924M2.92725 10.3924C2.92725 12.3346 3.69877 14.1972 5.07208 15.5705C6.44539 16.9438 8.308 17.7154 10.2502 17.7154C12.1923 17.7154 14.0549 16.9438 15.4282 15.5705C16.8016 14.1972 17.5731 12.3346 17.5731 10.3924H2.92725Z" stroke="black" stroke-linecap="round" stroke-linejoin="round"/>
<path d="M16.2669 10.3924C16.2669 9.68924 16.0435 9.00421 15.6289 8.43623C15.2143 7.86825 14.6299 7.44669 13.9602 7.23238C13.2904 7.01807 12.5699 7.02209 11.9026 7.24388C11.2353 7.46566 10.6557 7.89374 10.2474 8.46632M7.11719 7.10386C7.36656 5.21375 11.999 1.63344 15.4376 3.55482V4.3643C15.4376 4.3643 11.6586 4.6869 9.73048 7.89117" stroke="black" stroke-linecap="round" stroke-linejoin="round"/>
</svg>
