<svg width="20" height="20" viewBox="0 0 20 20" fill="none" xmlns="http://www.w3.org/2000/svg">
<path d="M10.6188 9.58635C10.6188 8.7065 10.2693 7.86269 9.64718 7.24054C9.02503 6.61839 8.18122 6.26888 7.30137 6.26888C6.42152 6.26888 5.57771 6.61839 4.95556 7.24054C4.33341 7.86269 3.98389 8.7065 3.98389 9.58635M2.67725 9.58635C2.67725 11.5285 3.44877 13.3911 4.82208 14.7644C6.19539 16.1378 8.058 16.9093 10.0002 16.9093C11.9423 16.9093 13.8049 16.1378 15.1782 14.7644C16.5516 13.3911 17.3231 11.5285 17.3231 9.58635H2.67725Z" stroke="black" stroke-linecap="round" stroke-linejoin="round"/>
<path d="M16.0169 9.58635C16.0169 8.88315 15.7935 8.19812 15.3789 7.63014C14.9643 7.06216 14.3799 6.6406 13.7102 6.42629C13.0404 6.21197 12.3199 6.216 11.6526 6.43779C10.9853 6.65957 10.4057 7.08764 9.99744 7.66023M6.86719 6.29777C7.11656 4.40766 11.749 0.827351 15.1876 2.74873V3.5582C15.1876 3.5582 11.4086 3.88081 9.48048 7.08508" stroke="black" stroke-linecap="round" stroke-linejoin="round"/>
</svg>
