<svg width="19" height="20" viewBox="0 0 19 20" fill="none" xmlns="http://www.w3.org/2000/svg">
<path d="M10.1188 10.1985C10.1188 9.31869 9.76933 8.47487 9.14718 7.85273C8.52503 7.23058 7.68122 6.88106 6.80137 6.88106C5.92152 6.88106 5.07771 7.23058 4.45556 7.85273C3.83341 8.47487 3.48389 9.31869 3.48389 10.1985M2.17725 10.1985C2.17725 12.1407 2.94877 14.0033 4.32208 15.3766C5.69539 16.7499 7.558 17.5215 9.50016 17.5215C11.4423 17.5215 13.3049 16.7499 14.6782 15.3766C16.0516 14.0033 16.8231 12.1407 16.8231 10.1985H2.17725Z" stroke="black" stroke-linecap="round" stroke-linejoin="round"/>
<path d="M15.5169 10.1985C15.5169 9.49533 15.2935 8.81031 14.8789 8.24232C14.4643 7.67434 13.8799 7.25278 13.2102 7.03847C12.5404 6.82416 11.8199 6.82819 11.1526 7.04997C10.4853 7.27176 9.90566 7.69983 9.49744 8.27241M6.36719 6.90995C6.61656 5.01985 11.249 1.43953 14.6876 3.36091V4.17039C14.6876 4.17039 10.9086 4.49299 8.98048 7.69726" stroke="black" stroke-linecap="round" stroke-linejoin="round"/>
</svg>
