<svg width="17" height="17" viewBox="0 0 17 17" fill="none" xmlns="http://www.w3.org/2000/svg">
<g clip-path="url(#clip0_257_1018)">
<path d="M3.60693 7.07713V6.00284C3.60693 5.39663 3.84775 4.81525 4.2764 4.3866C4.70506 3.95794 5.28644 3.71713 5.89265 3.71713H12.8069C13.0772 3.70445 13.3418 3.79763 13.5445 3.97687C13.7473 4.15612 13.8721 4.40731 13.8926 4.67713V9.04284C13.8721 9.31266 13.7473 9.56385 13.5445 9.7431C13.3418 9.92234 13.0772 10.0155 12.8069 10.0028H10.8069" stroke="black" stroke-linecap="round" stroke-linejoin="round"/>
<path d="M16.1784 11.42V14.7114C16.1784 15.1297 16.0123 15.5308 15.7165 15.8266C15.4207 16.1224 15.0196 16.2886 14.6013 16.2886H8.50986C8.16666 16.2894 7.83255 16.1782 7.55823 15.972C7.28392 15.7657 7.08436 15.4756 6.98986 15.1457C6.89757 14.8167 6.70018 14.5269 6.4278 14.3205C6.15542 14.1142 5.82301 14.0026 5.48129 14.0028H4.84129C3.90773 14.0028 3.0124 13.632 2.35227 12.9719C1.69215 12.3117 1.32129 11.4164 1.32129 10.4828V6.07141" stroke="black" stroke-linecap="round" stroke-linejoin="round"/>
<path d="M13.8927 1.43141C14.4989 1.43141 15.0803 1.67223 15.509 2.10088C15.9376 2.52954 16.1784 3.11092 16.1784 3.71713V11.42C16.1784 11.8383 16.0123 12.2394 15.7165 12.5352C15.4207 12.831 15.0196 12.9971 14.6013 12.9971H9.89272C9.54951 12.998 9.2154 12.8868 8.94109 12.6806C8.66677 12.4743 8.46722 12.1842 8.37272 11.8543C8.28043 11.5253 8.08303 11.2355 7.81065 11.0291C7.53827 10.8228 7.20586 10.7112 6.86415 10.7114H5.96129C4.73068 10.7114 3.55048 10.2226 2.68031 9.35239C1.81014 8.48222 1.32129 7.30202 1.32129 6.07141C1.32129 4.84081 1.81014 3.66061 2.68031 2.79044C3.55048 1.92027 4.73068 1.43141 5.96129 1.43141H13.8927Z" stroke="black" stroke-linecap="round" stroke-linejoin="round"/>
<path d="M6.84145 7.3057C7.15704 7.3057 7.41288 7.04986 7.41288 6.73427C7.41288 6.41868 7.15704 6.16284 6.84145 6.16284C6.52586 6.16284 6.27002 6.41868 6.27002 6.73427C6.27002 7.04986 6.52586 7.3057 6.84145 7.3057Z" stroke="black" stroke-linecap="round" stroke-linejoin="round"/>
</g>
<defs>
<clipPath id="clip0_257_1018">
<rect width="16" height="16" fill="white" transform="translate(0.75 0.859985)"/>
</clipPath>
</defs>
</svg>
