<svg width="17" height="17" viewBox="0 0 17 17" fill="none" xmlns="http://www.w3.org/2000/svg">
<g clip-path="url(#clip0_257_1041)">
<path d="M3.35693 6.27104V5.19675C3.35693 4.59054 3.59775 4.00916 4.0264 3.58051C4.45506 3.15185 5.03644 2.91104 5.64265 2.91104H12.5569C12.8272 2.89836 13.0918 2.99154 13.2945 3.17078C13.4973 3.35003 13.6221 3.60122 13.6426 3.87104V8.23675C13.6221 8.50657 13.4973 8.75776 13.2945 8.937C13.0918 9.11625 12.8272 9.20942 12.5569 9.19675H10.5569" stroke="black" stroke-linecap="round" stroke-linejoin="round"/>
<path d="M15.9284 10.6139V13.9053C15.9284 14.3236 15.7623 14.7248 15.4665 15.0205C15.1707 15.3163 14.7696 15.4825 14.3513 15.4825H8.25986C7.91666 15.4833 7.58255 15.3722 7.30823 15.1659C7.03392 14.9596 6.83436 14.6695 6.73986 14.3396C6.64757 14.0106 6.45018 13.7208 6.1778 13.5144C5.90542 13.3081 5.57301 13.1965 5.23129 13.1968H4.59129C3.65773 13.1968 2.7624 12.8259 2.10227 12.1658C1.44215 11.5056 1.07129 10.6103 1.07129 9.67675V5.26532" stroke="black" stroke-linecap="round" stroke-linejoin="round"/>
<path d="M13.6427 0.625322C14.2489 0.625322 14.8303 0.866138 15.259 1.29479C15.6876 1.72345 15.9284 2.30483 15.9284 2.91104V10.6139C15.9284 11.0322 15.7623 11.4333 15.4665 11.7291C15.1707 12.0249 14.7696 12.191 14.3513 12.191H9.64272C9.29951 12.1919 8.9654 12.0807 8.69109 11.8745C8.41677 11.6682 8.21722 11.3781 8.12272 11.0482C8.03043 10.7192 7.83303 10.4294 7.56065 10.223C7.28827 10.0167 6.95586 9.90509 6.61415 9.90532H5.71129C4.48068 9.90532 3.30048 9.41647 2.43031 8.5463C1.56014 7.67613 1.07129 6.49593 1.07129 5.26532C1.07129 4.03472 1.56014 2.85452 2.43031 1.98435C3.30048 1.11418 4.48068 0.625322 5.71129 0.625322H13.6427Z" stroke="black" stroke-linecap="round" stroke-linejoin="round"/>
<path d="M6.59145 6.49961C6.90704 6.49961 7.16288 6.24377 7.16288 5.92818C7.16288 5.61259 6.90704 5.35675 6.59145 5.35675C6.27586 5.35675 6.02002 5.61259 6.02002 5.92818C6.02002 6.24377 6.27586 6.49961 6.59145 6.49961Z" stroke="black" stroke-linecap="round" stroke-linejoin="round"/>
</g>
<defs>
<clipPath id="clip0_257_1041">
<rect width="16" height="16" fill="white" transform="translate(0.5 0.053894)"/>
</clipPath>
</defs>
</svg>
