<svg width="16" height="17" viewBox="0 0 16 17" fill="none" xmlns="http://www.w3.org/2000/svg">
<g clip-path="url(#clip0_257_971)">
<path d="M2.85693 6.88322V5.80893C2.85693 5.20272 3.09775 4.62134 3.5264 4.19269C3.95506 3.76403 4.53644 3.52322 5.14265 3.52322H12.0569C12.3272 3.51055 12.5918 3.60372 12.7945 3.78297C12.9973 3.96221 13.1221 4.2134 13.1426 4.48322V8.84893C13.1221 9.11875 12.9973 9.36994 12.7945 9.54919C12.5918 9.72843 12.3272 9.82161 12.0569 9.80893H10.0569" stroke="black" stroke-linecap="round" stroke-linejoin="round"/>
<path d="M15.4284 11.2261V14.5175C15.4284 14.9358 15.2623 15.3369 14.9665 15.6327C14.6707 15.9285 14.2696 16.0946 13.8513 16.0946H7.75986C7.41666 16.0955 7.08255 15.9843 6.80823 15.7781C6.53392 15.5718 6.33436 15.2817 6.23986 14.9518C6.14757 14.6228 5.95018 14.333 5.6778 14.1266C5.40542 13.9203 5.07301 13.8087 4.73129 13.8089H4.09129C3.15773 13.8089 2.2624 13.4381 1.60227 12.7779C0.942145 12.1178 0.571289 11.2225 0.571289 10.2889V5.87751" stroke="black" stroke-linecap="round" stroke-linejoin="round"/>
<path d="M13.1427 1.2375C13.7489 1.2375 14.3303 1.47832 14.759 1.90698C15.1876 2.33563 15.4284 2.91701 15.4284 3.52322V11.2261C15.4284 11.6444 15.2623 12.0455 14.9665 12.3413C14.6707 12.6371 14.2696 12.8032 13.8513 12.8032H9.14272C8.79951 12.8041 8.4654 12.6929 8.19109 12.4867C7.91677 12.2804 7.71722 11.9903 7.62272 11.6604C7.53043 11.3313 7.33303 11.0415 7.06065 10.8352C6.78827 10.6289 6.45586 10.5173 6.11415 10.5175H5.21129C3.98068 10.5175 2.80048 10.0286 1.93031 9.15848C1.06014 8.28831 0.571289 7.10811 0.571289 5.8775C0.571289 4.6469 1.06014 3.4667 1.93031 2.59653C2.80048 1.72636 3.98068 1.2375 5.21129 1.2375H13.1427Z" stroke="black" stroke-linecap="round" stroke-linejoin="round"/>
<path d="M6.09145 7.11179C6.40704 7.11179 6.66288 6.85595 6.66288 6.54036C6.66288 6.22477 6.40704 5.96893 6.09145 5.96893C5.77586 5.96893 5.52002 6.22477 5.52002 6.54036C5.52002 6.85595 5.77586 7.11179 6.09145 7.11179Z" stroke="black" stroke-linecap="round" stroke-linejoin="round"/>
</g>
<defs>
<clipPath id="clip0_257_971">
<rect width="16" height="16" fill="white" transform="translate(0 0.666077)"/>
</clipPath>
</defs>
</svg>
