<svg width="59" height="42" viewBox="0 0 59 42" fill="none" xmlns="http://www.w3.org/2000/svg">
<path d="M31.6434 20.7303C21.8406 25.6407 10.4117 31.2829 2.40234 40.286M33.5565 23.05C23.3698 36.8867 16.7857 40.286 16.7857 40.286M11.1503 40.286C17.2939 36.6947 32.5852 21.8687 32.5852 21.8687M37.2878 22.1826L55.6984 7.26171C56.0008 7.01703 56.2519 6.71515 56.4375 6.37332C56.6231 6.03149 56.7395 5.65642 56.7799 5.26958C56.8204 4.88274 56.7843 4.4917 56.6735 4.11885C56.5627 3.74601 56.3795 3.39866 56.1343 3.09668C55.8895 2.79457 55.5875 2.54365 55.2457 2.35824C54.9039 2.17283 54.5289 2.05657 54.1421 2.01609C53.7554 1.97561 53.3644 2.0117 52.9916 2.12232C52.6188 2.23293 52.2714 2.41589 51.9693 2.66075L33.5565 17.5794" stroke="black" stroke-width="3" stroke-linecap="round" stroke-linejoin="round"/>
</svg>
